{"title":"Oxygono AKA Blackmail Boy (2003)","uid":6885012,"size":947079000,"categoryP":"video","categoryS":"movies","magnet":"?xt=urn:btih:87ee4b86882c21311a93cedba618a3a360f6daa3&amp;dn=Oxygono+AKA+Blackmail+Boy+%282003%29&amp;tr=udp%3A%2F%2Ftracker.openbittorrent.com%3A80&amp;tr=udp%3A%2F%2Fopen.demonii.com%3A1337&amp;tr=udp%3A%2F%2Ftracker.coppersurfer.tk%3A6969&amp;tr=udp%3A%2F%2Fexodus.desync.com%3A6969","seeders":2,"leechers":1,"uploader":"pessoa20","files":-1,"time":1323794515,"description":"Oxygono AKA Blackmail Boy (2003)\n   &lt;a href=&quot;\nhttp://www.imdb.com/title/tt0399465/&quot; rel=&quot;nofollow&quot; target=&quot;_NEW&quot;&gt;\nhttp://www.imdb.com/title/tt0399465/&lt;/a&gt;\n\nDirectors: Thanasis Papathanasiou and Michalis Reppas\n\nWriters: Thanasis Papathanasiou and Michalis Reppas\n\nCast:\n\nYannis Tsimitselis\nAkilas Karazisis\nNena Menti\n\nSynopsys:\n\nIn the small, closed community of a provincial town, Magda tries to maintain a balance within a family facing many serious problems. The families apparently normal, bourgeois, every-day life will crack open, bringing to the surface hatred and passions of the kind that lie well-hidden in the mists of the nearby lake. An intense plot and a totally unexpected ending make up this film, which features characters who are vulnerable, innocent and ordinary, but who become ruthless and callous, worrying only about protecting their financial resources. The offences are disproportionately serious compared to the financial benefits they try to secure.\n\nScreenshots:\n  &lt;a href=&quot;\nhttp://image.bayimg.com/halbdaadg.jpg&quot; rel=&quot;nofollow&quot; target=&quot;_NEW&quot;&gt;\nhttp://image.bayimg.com/halbdaadg.jpg&lt;/a&gt;\n &lt;a href=&quot;\nhttp://image.bayimg.com/halbgaadg.jpg&quot; rel=&quot;nofollow&quot; target=&quot;_NEW&quot;&gt;\nhttp://image.bayimg.com/halbgaadg.jpg&lt;/a&gt;\n &lt;a href=&quot;\nhttp://image.bayimg.com/halbhaadg.jpg&quot; rel=&quot;nofollow&quot; target=&quot;_NEW&quot;&gt;\nhttp://image.bayimg.com/halbhaadg.jpg&lt;/a&gt;\n &lt;a href=&quot;\nhttp://image.bayimg.com/halbiaadg.jpg&quot; rel=&quot;nofollow&quot; target=&quot;_NEW&quot;&gt;\nhttp://image.bayimg.com/halbiaadg.jpg&lt;/a&gt;\n &lt;a href=&quot;\nhttp://image.bayimg.com/halbjaadg.jpg&quot; rel=&quot;nofollow&quot; target=&quot;_NEW&quot;&gt;\nhttp://image.bayimg.com/halbjaadg.jpg&lt;/a&gt;\n\nTechnical Specs:\n\nGeneral\nComplete name                    : Oxygono.AKA.Blackmail.Boy.2003.avi\nFormat                           : AVI\nFormat/Info                      : Audio Video Interleave\nFile size                        : 903 MiB\nDuration                         : 1h 34mn\nOverall bit rate                 : 1 340 Kbps\n\nVideo\nID                               : 0\nFormat                           : MPEG-4 Visual\nFormat profile                   : Simple@L3\nFormat settings, BVOP            : No\nFormat settings, QPel            : No\nFormat settings, GMC             : No warppoints\nFormat settings, Matrix          : Default (H.263)\nCodec ID                         : XVID\nCodec ID/Hint                    : XviD\nDuration                         : 1h 34mn\nBit rate                         : 1 199 Kbps\nWidth                            : 640 pixels\nHeight                           : 360 pixels\nDisplay aspect ratio             : 16:9\nFrame rate                       : 25.000 fps\nColor space                      : YUV\nChroma subsampling               : 4:2:0\nBit depth                        : 8 bits\nScan type                        : Progressive\nCompression mode                 : Lossy\nBits/(Pixel*Frame)               : 0.208\nStream size                      : 809 MiB (90%)\nWriting library                  : Magic0432\n\nAudio\nID                               : 1\nFormat                           : MPEG Audio\nFormat version                   : Version 1\nFormat profile                   : Layer 3\nMode                             : Joint stereo\nMode extension                   : MS Stereo\nCodec ID                         : 55\nCodec ID/Hint                    : MP3\nDuration                         : 1h 34mn\nBit rate mode                    : Constant\nBit rate                         : 128 Kbps\nChannel(s)                       : 2 channels\nSampling rate                    : 44.1 KHz\nCompression mode                 : Lossy\nStream size                      : 86.3 MiB (10%)\nAlignment                        : Aligned on interleaves\nInterleave, duration             : 26 ms (0.65 video frame)","torrent":{"xt":"urn:btih:87ee4b86882c21311a93cedba618a3a360f6daa3","amp;dn":"Oxygono+AKA+Blackmail+Boy+%282003%29","amp;tr":["udp%3A%2F%2Ftracker.openbittorrent.com%3A80","udp%3A%2F%2Fopen.demonii.com%3A1337","udp%3A%2F%2Ftracker.coppersurfer.tk%3A6969","udp%3A%2F%2Fexodus.desync.com%3A6969"],"infoHash":"87ee4b86882c21311a93cedba618a3a360f6daa3","infoHashBuffer":{"type":"Buffer","data":[135,238,75,134,136,44,33,49,26,147,206,219,166,24,163,163,96,246,218,163]},"announce":[],"urlList":[]}}